PathFileType	4	(X/Y/Z)	5_coords_data.trc
DataRate	CameraRate	NumFrames	NumMarkers	Units	OrigDataRate	OrigDataStartFrame	OrigNumFrames
30.0	30.0	5	21	m	30.0	39	68
Frame#	Time	THUMB_TIP	THUMB_IP	THUMB_MCP	THUMB_CMC	INDEX_TIP	INDEX_DIP	INDEX_PIP	INDEX_MCP	MIDDLE_TIP	MIDDLE_DIP	MIDDLE_PIP	MIDDLE_MCP	RING_TIP	RING_DIP	RING_PIP	RING_MCP	PINKY_TIP	PINKY_DIP	PINKY_PIP	PINKY_MCP	WRIST
X1	Y1	Z1	X2	Y2	Z2	X3	Y3	Z3	X4	Y4	Z4	X5	Y5	Z5	X6	Y6	Z6	X7	Y7	Z7	X8	Y8	Z8	X9	Y9	Z9	X10	Y10	Z10	X11	Y11	Z11	X12	Y12	Z12	X13	Y13	Z13	X14	Y14	Z14	X15	Y15	Z15	X16	Y16	Z16	X17	Y17	Z17	X18	Y18	Z18	X19	Y19	Z19	X20	Y20	Z20	X21	Y21	Z21
38	1.2666666666666666	-0.04979629898071289	-0.12149299621582031	1.0428900146484374	-0.07207769775390625	-0.12081800079345703	1.04702001953125	-0.08909609985351563	-0.10069300079345703	1.0475999755859375	-0.0803115005493164	-0.07183170318603516	1.05368994140625	-0.054189800262451175	-0.17270199584960938	0.9937150268554688	-0.05904349899291992	-0.15260499572753905	0.99464599609375	-0.06343239974975586	-0.13001600646972655	0.9949979858398438	-0.06758899688720703	-0.09003990173339843	1.0010499877929688	-0.07078790283203125	-0.09593939971923827	1.0473399658203124	-0.062222301483154295	-0.10752999877929688	1.0396600341796876	-0.05028720092773437	-0.12036900329589843	1.0233300170898438	-0.04741299819946289	-0.08433779907226563	1.0007000122070313	-0.058039398193359376	-0.09378549957275391	1.0598499755859374	-0.049694000244140626	-0.1057770004272461	1.047239990234375	-0.03340999984741211	-0.11723600006103516	1.028510009765625	-0.03081850051879883	-0.08110610198974609	1.0125399780273439	0.001032690048217773	-0.1365090026855469	1.0013300170898438	-0.006092820167541504	-0.11966699981689453	1.0093400268554686	-0.013844900131225586	-0.10447100067138672	1.0170399780273438	-0.024507600784301756	-0.08171410369873047	1.03093994140625	-0.0687592010498047	-0.03603499984741211	1.06856005859375
39	1.3	-0.049134300231933596	-0.12145899963378906	1.0422900390625	-0.07178780364990234	-0.12065599822998047	1.0464300537109374	-0.08894290161132813	-0.10051499938964843	1.047050048828125	-0.08016259765625	-0.07165010070800781	1.0532900390625	-0.053584701538085935	-0.17200399780273437	0.9929249877929688	-0.058512001037597655	-0.15189599609375	0.9937739868164063	-0.06304819869995117	-0.1294219970703125	0.9940750122070312	-0.06757319641113281	-0.08948600006103516	1.00047998046875	-0.07021829986572266	-0.09591349792480469	1.04777001953125	-0.061817298889160155	-0.10736000061035156	1.0393900146484376	-0.04997909927368164	-0.12003500366210937	1.0224000244140625	-0.047225700378417966	-0.08375189971923828	1.00052001953125	-0.057833499908447265	-0.09319190216064453	1.0604200439453124	-0.049204898834228517	-0.10518399810791015	1.0468499755859375	-0.03290190124511719	-0.1166729965209961	1.0276099853515626	-0.030796499252319337	-0.08040119934082031	1.0121900024414063	0.001757230043411254	-0.13574600219726562	1.0008900146484374	-0.0054478302001953124	-0.11886399841308594	1.008760009765625	-0.013424200057983398	-0.10365799713134766	1.0165	-0.024339899063110352	-0.08096890258789062	1.0305	-0.06869349670410156	-0.03592580032348633	1.0684599609375
40	1.3333333333333333	-0.048130599975585935	-0.12245600128173828	1.039699951171875	-0.07088739776611327	-0.12077100372314453	1.044219970703125	-0.08811180114746094	-0.10049299621582031	1.0458800048828125	-0.07962380218505859	-0.071693603515625	1.0523599853515626	-0.051716201782226565	-0.1705469970703125	0.9911610107421875	-0.05691799926757812	-0.15045500183105467	0.9918930053710937	-0.06186600112915039	-0.1279929962158203	0.9922949829101563	-0.06730460357666015	-0.08842459869384765	0.99927099609375	-0.06933580017089844	-0.09585919952392578	1.046449951171875	-0.06097719955444336	-0.10725299835205078	1.0381500244140625	-0.049014801025390624	-0.11935700225830079	1.020489990234375	-0.04722909927368164	-0.08249909973144531	0.9994829711914063	-0.05701689910888672	-0.09327420043945313	1.0580799560546874	-0.04818159866333008	-0.10497899627685547	1.045449951171875	-0.03173460006713867	-0.11563200378417969	1.02618994140625	-0.030605300903320313	-0.07896790313720703	1.0111199951171874	0.003959889888763427	-0.13376300048828124	1.0003200073242187	-0.0037322700023651122	-0.11699800109863281	1.0078599853515624	-0.012087599754333496	-0.10199099731445313	1.0153099975585937	-0.02412179946899414	-0.07978900146484375	1.02943994140625	-0.06879779815673828	-0.0356968994140625	1.0683199462890625
41	1.3666666666666667	-0.04620349884033203	-0.12343599700927735	1.0356300048828124	-0.06927770233154297	-0.1205540008544922	1.0409200439453126	-0.08693479919433594	-0.10036699676513672	1.0439000244140626	-0.07876309967041016	-0.0716177978515625	1.05122998046875	-0.048619701385498044	-0.16766999816894532	0.9879349975585937	-0.054320499420166014	-0.14773699951171876	0.9885809936523438	-0.060059898376464846	-0.12523600006103516	0.9891519775390625	-0.0671343994140625	-0.08638999938964843	0.997677001953125	-0.06713249969482422	-0.09564659881591797	1.044969970703125	-0.058907100677490234	-0.1066520004272461	1.035280029296875	-0.047106300354003906	-0.11789600372314453	1.0168699951171876	-0.04699150085449219	-0.08003810119628907	0.9976099853515625	-0.05532229995727539	-0.09341899871826172	1.0568199462890624	-0.04586949920654297	-0.10425299835205078	1.04306005859375	-0.02971260070800781	-0.1135979995727539	1.0223699951171874	-0.030385400772094725	-0.07629769897460938	1.0089400024414064	0.006829969882965088	-0.1300780029296875	0.9984569702148437	-0.001317780017852783	-0.11368099975585938	1.005510009765625	-0.01021619987487793	-0.09890499877929687	1.0132000122070313	-0.023229400634765626	-0.07725990295410157	1.0269200439453126	-0.06881680297851563	-0.03570729827880859	1.0680400390625
42	1.4	-0.044145698547363284	-0.12389800262451171	1.0300799560546876	-0.06702950286865235	-0.12016200256347656	1.0363199462890624	-0.08544090270996094	-0.1001510009765625	1.0409599609375	-0.0777166976928711	-0.07172059631347656	1.0501700439453125	-0.046081298828125	-0.1636320037841797	0.984427978515625	-0.052238998413085935	-0.14389199829101562	0.984708984375	-0.05861640167236328	-0.12148400115966797	0.9852379760742187	-0.06730950164794922	-0.08323709869384766	0.9953740234375	-0.06440070343017579	-0.09591649627685547	1.0420899658203124	-0.05621179962158203	-0.10616300201416015	1.03177001953125	-0.044913501739501954	-0.11542600250244141	1.0116199951171876	-0.0471515007019043	-0.07635169982910156	0.9955120239257812	-0.05284170150756836	-0.09198149871826172	1.0539200439453125	-0.04275469970703125	-0.10348999786376953	1.03872998046875	-0.027386999130249022	-0.11035399627685546	1.0180700073242188	-0.030626899719238283	-0.07230359649658204	1.0061799926757813	0.009225930213928223	-0.12527400207519532	0.9951160278320312	0.0007289729714393611	-0.1088489990234375	1.0018800048828125	-0.008360400199890136	-0.09430120086669921	1.0089600219726562	-0.02262299919128418	-0.073658203125	1.0239400024414063	-0.06851589965820312	-0.03600270080566406	1.06747998046875
